<?xml version="1.0" encoding="UTF-8"?>
<!DOCTYPE svg PUBLIC "-//W3C//DTD SVG 1.1//EN" "http://www.w3.org/Graphics/SVG/1.1/DTD/svg11.dtd">
<svg version="1.1" xmlns="http://www.w3.org/2000/svg" xmlns:xlink="http://www.w3.org/1999/xlink" x="0" y="0" width="598" height="878" viewBox="0, 0, 598, 878">
  <defs>
    <clipPath id="Clip_1">
      <path d="M0.06,0.65 L597.492,0.65 L597.492,878 L0.06,878 z"/>
    </clipPath>
  </defs>
  <g id="Layer_1">
    <g clip-path="url(#Clip_1)">
      <path d="M167.477,503.985 C158.929,514.97 150.361,525.939 141.84,536.946 C129.711,552.615 117.627,568.319 105.495,583.986 C104.055,585.844 103.006,587.831 102.122,590.027 C97.283,602.04 91.05,613.12 80.445,621.144 C78.037,622.966 75.522,624.594 72.63,625.474 C62.851,628.449 56.081,623.623 52.7,610.999 C46.839,613.691 40.811,615.794 34.555,617.165 C28.598,618.47 22.971,618.005 18.013,614.033 C13.553,610.459 11.85,605.823 13.12,600.286 C13.678,597.852 13.523,596.727 10.756,595.684 C0.836,591.947 -2.808,581.414 2.304,571.955 C3.087,570.506 3.291,569.535 2.637,567.898 C-0.521,559.991 1.087,554.375 8.039,549.091 C16.411,542.728 26.298,539.654 36.228,536.868 C39.484,535.955 41.613,534.369 43.515,531.563 C65.949,498.464 92.665,469.017 121.272,441.231 C130.824,431.952 140.726,423.032 150.546,414.033 C152.412,412.323 153.103,410.849 152.597,408.09 C151.575,402.523 151.477,396.78 153.107,391.249 C153.923,388.482 153.355,386.818 150.984,385.017 C127.469,367.158 111.882,343.62 101.968,316.057 C101.303,314.208 101.337,311.841 98.066,311.86 C82.018,311.954 67.609,302.232 66.489,277.958 C65.975,266.82 67.204,255.898 76.319,247.212 C64.946,239.536 58.568,228.585 55.878,215.492 C51.962,196.426 53.937,178.03 63.6,160.902 C65.368,157.769 64.577,157.285 61.763,156.347 C56.859,154.712 52.334,152.216 48.261,148.972 C35.651,138.928 32.127,124.283 38.963,109.694 C45.179,96.43 55.516,86.864 67.509,79.017 C80.707,70.382 95.202,64.557 110.539,61.046 C114.93,60.041 118.46,58.206 121.911,55.446 C152.894,30.668 187.263,12.545 226.405,4.886 C270.795,-3.799 314.232,1.208 356.455,16.823 C396.469,31.622 430.896,54.597 456.641,89.079 C481.06,121.783 492.801,158.747 491.092,199.722 C490.815,206.371 490.184,213.033 488.518,219.482 C487.669,222.772 489.152,223.841 491.73,224.187 C494.89,224.612 493.784,221.81 493.919,220.472 C494.52,214.496 495.36,208.585 497.195,202.85 C498.366,199.19 499.965,195.724 502.167,192.56 C510.676,180.335 523.224,180.624 531.179,193.225 C531.691,194.036 532.167,194.869 532.69,195.742 C535.329,193.487 537.659,191.066 540.39,189.246 C547.296,184.641 554.808,186.233 559.561,193.05 C563.611,198.857 564.564,205.616 565.395,212.402 C565.748,212.421 566.102,212.551 566.335,212.436 C572.181,209.558 578.073,208.388 583.756,212.624 C589.635,217.006 589.969,223.398 588.973,229.815 C588.527,232.693 588.563,234.122 591.595,235.403 C595.315,236.975 596.813,240.194 597.301,244.511 C598.941,259.016 589.703,268.03 581.289,277.379 C572.78,286.834 562.583,294.4 552.093,301.516 C549.292,303.417 547.461,305.318 546.509,308.957 C544.748,315.689 541.123,321.815 537.746,327.921 C511.711,374.992 475.326,412.659 432.009,443.998 C413.918,457.087 394.876,468.634 374.92,478.628 C371.542,480.319 370.995,481.981 371.672,485.541 C378.515,521.564 382.551,557.922 384.373,594.541 C384.612,599.334 382.832,602.621 378.372,603.484 C368.458,605.402 366.29,611.146 366.944,620.671 C367.947,635.268 367.318,649.979 367.352,664.641 C367.378,675.885 363.868,681.513 353.078,685.2 C348.763,686.675 347.662,688.893 347.302,692.905 C343.731,732.694 340.045,772.473 336.305,812.247 C336.051,814.945 336.721,816.895 338.496,818.939 C344.396,825.735 349.739,832.949 353.753,841.067 C355.84,845.287 357.266,849.698 357.566,854.41 C358.015,861.464 355.623,867.341 349.36,870.878 C337.618,877.509 324.789,879.307 311.689,877.112 C301.543,875.413 293.815,869.237 288.239,860.638 C281.29,849.92 277.687,838.173 277.702,825.311 C277.753,780.984 277.692,736.656 277.783,692.329 C277.79,689.041 277.142,687.601 273.456,687.595 C269.818,687.588 269.127,688.888 269.135,692.242 C269.241,736.903 269.35,781.564 269.122,826.224 C269.048,840.584 264.56,853.775 255.238,864.912 C243.567,878.856 228.143,879.597 211.877,876.393 C208.328,875.693 204.887,874.265 201.512,872.891 C191.222,868.702 187.174,860.849 189.803,850.084 C192.694,838.244 199.891,828.832 207.587,819.825 C209.843,817.185 210.616,814.74 210.295,811.325 C206.457,770.562 202.75,729.787 199.049,689.011 C198.834,686.633 198.254,685.108 195.52,684.463 C192.487,683.747 189.563,682.395 186.733,681.026 C178.252,676.922 173.581,671.327 174.736,660.64 C176.468,644.625 176.331,628.41 177.064,612.284 C177.162,610.131 176.507,608.994 174.391,608.245 C170.484,606.862 166.709,605.109 162.856,603.568 C158.588,601.86 156.81,598.906 157.249,594.206 C159.306,572.163 161.526,550.14 164.673,528.22 C165.817,520.248 167.036,512.287 168.221,504.321 C167.973,504.209 167.725,504.097 167.477,503.985" fill="#6E4100"/>
    </g>
    <path d="M532.194,463.874 C528.199,463.927 525.87,462.057 525.287,458.466 C524.699,454.839 526.423,452.32 529.952,451.282 C532.652,450.487 535.475,450.099 538.16,449.262 C559.642,442.565 571.607,427.427 576.187,405.926 C577.907,397.851 579.867,395.508 584.87,396.542 C589.217,397.44 590.355,400.485 589.149,407.997 C584.644,436.071 562.74,458.514 534.901,463.566 C533.923,463.744 532.921,463.794 532.194,463.874" fill="#FF7164"/>
    <path d="M558.48,385.763 C555.643,404.542 544.596,418.913 526.036,427.624 C523.337,428.891 520.495,429.945 517.618,430.72 C512.78,432.023 509.312,430.386 508.459,426.388 C507.52,421.982 509.859,419.57 513.915,418.293 C526.912,414.202 536.955,406.593 542.652,393.878 C544.231,390.356 545.21,386.664 545.711,382.862 C546.288,378.49 548.602,376.131 553.058,376.593 C557.461,377.051 558.691,380.149 558.48,385.763" fill="#FF7164"/>
    <path d="M105.428,274.765 C98.68,222.928 110.629,175.674 141.017,133.299 C155.442,113.185 174.75,98.578 196.958,87.731 C200.329,86.085 200.772,86.913 201.344,90.347 C206.138,119.125 217.172,145.111 238.859,165.193 C260.575,185.303 283.45,179.297 294.043,151.61 C294.872,149.443 295.533,147.213 296.472,144.417 C300.931,149.832 305.248,154.789 310.168,159.168 C319.436,167.418 329.599,174.215 341.184,178.82 C356.394,184.865 376.612,181.763 380.525,158.984 C387.208,165.216 394.192,170.804 402.239,174.918 C408.963,178.357 415.938,180.881 423.606,181.039 C425.617,181.08 427.189,181.454 427.986,183.92 C436.939,211.61 441.645,239.773 437.905,268.932 C437.779,269.913 437.462,270.87 437.234,271.839 C434.61,271.943 434.171,269.568 433.175,268.034 C424.194,254.202 407.262,249.778 392.71,252.71 C379.414,255.39 361.732,274.682 368.157,294.157 C370.376,300.885 373.426,307.07 378.188,312.349 C388.936,324.262 406.342,326.042 419.857,316.616 C421.628,315.381 423.236,313.888 425.217,312.995 C425.953,312.663 427.169,311.868 427.24,313.733 C413.727,350.918 388.786,377.408 352.299,392.596 C319.004,406.455 284.041,409.088 248.484,406.248 C224.247,404.313 200.849,398.934 179.156,387.583 C150.001,372.328 129.353,349.305 117.185,318.708 C118.447,315.522 120.478,317.678 121.933,318.252 C128,320.644 134.073,322.583 140.745,322.516 C156.157,322.361 170.34,310.13 174.01,295.129 C177.288,281.732 166.002,259.144 151.588,253.871 C139.096,249.301 123.022,253.558 114.268,264.581 C112.407,266.923 110.678,269.364 109.084,271.902 C108.229,273.263 107.545,274.964 105.428,274.765" fill="#FEF8EA"/>
    <path d="M227.978,438.971 C210.581,439.894 194.842,434.453 179.935,426.169 C169.301,420.259 164.659,410.867 165.06,398.817 C165.146,396.227 165.607,395.061 168.487,396.672 C188.927,408.104 210.962,414.675 234.089,417.737 C236.567,418.066 237.374,419.594 238.27,421.412 C241.823,428.617 246.036,435.38 251.864,440.998 C265.28,453.932 282.367,452.769 293.943,438.134 C297.998,433.009 301.166,427.347 303.482,421.248 C304.364,418.923 305.716,418.049 308.202,417.715 C330.801,414.674 352.436,408.435 372.47,397.344 C375.993,395.394 376.564,396.488 376.598,399.772 C376.718,411.23 372.188,420.267 362.142,425.871 C348.205,433.646 333.563,439.413 317.175,438.882 C315.305,438.821 313.837,439.016 313.85,441.353 C311.675,441.173 312.119,439.229 311.684,437.974 C310.677,435.072 308.865,433.265 305.725,434.083 C302.729,434.862 301.556,437.258 301.917,440.269 C302.412,444.402 303.153,448.502 303.79,452.615 C306.644,471.043 309.333,489.494 312.001,507.949 C312.443,511.014 312.346,513.769 310.896,516.639 C308.645,521.096 309.467,523.314 314.021,525.317 C316.377,526.353 317.715,527.953 318.667,530.193 C320.036,533.41 321.256,536.7 322.89,539.791 C324.284,542.428 326.552,543.886 329.505,542.705 C332.536,541.493 332.857,538.825 332.075,535.984 C331.5,533.895 330.7,531.867 329.728,529.936 C328.009,526.519 327.233,523.184 328.975,519.436 C330.194,516.816 329.167,514.456 326.656,513.064 C323.2,511.146 322.18,508.098 321.671,504.415 C319.552,489.077 317.263,473.762 315.014,458.442 C314.698,456.287 313.548,453.88 315.432,451.782 C336.063,452.895 354.674,446.213 371.527,435.324 C386.707,425.516 391.695,410.316 388.887,392.651 C388.513,390.302 388.928,389.035 390.693,387.612 C427.784,357.706 458.759,322.573 481.689,280.628 C483.062,278.117 484.133,278.36 486.186,279.675 C500.624,288.922 515.059,298.178 529.663,307.157 C532.967,309.189 531.723,310.888 530.582,313.21 C517.462,339.898 499.937,363.464 479.663,385.071 C445.988,420.96 406.345,448.663 362.375,470.413 C360.586,471.297 358.672,472.034 357.088,473.205 C353.973,475.508 352.687,479.154 355.414,481.833 C359.064,485.419 359.27,489.784 360.048,494.069 C365.648,524.888 368.835,555.994 371.126,587.215 C371.422,591.253 370.29,593.002 366.468,594.346 C302.823,616.725 239.197,618.589 175.451,594.761 C171.711,593.364 170.571,591.787 170.944,587.619 C174.078,552.625 178.815,517.863 185.265,483.331 C185.447,482.357 185.664,481.348 186.097,480.47 C188.025,476.563 188.219,472.905 183.941,470.578 C179.693,468.268 176.837,470.639 174.251,473.991 C163.976,487.309 153.554,500.514 143.245,513.805 C128.139,533.282 113.024,552.754 98.065,572.343 C95.639,575.52 94.244,576.179 90.965,573.051 C79.884,562.482 68.495,552.229 57.04,542.063 C54.455,539.768 54.538,538.313 56.425,535.62 C72.813,512.234 91.381,490.692 111.063,470.053 C125.207,455.221 140.165,441.247 155.162,427.3 C157.8,424.847 159.033,424.579 161.571,427.64 C171.403,439.497 185.587,443.93 199.469,448.54 C208.037,451.384 217.007,452.413 226.088,451.822 C227.776,453.31 227.131,455.179 226.874,456.947 C224.434,473.73 221.762,490.48 219.545,507.294 C219.203,509.883 217.989,511.531 215.735,512.691 C212.167,514.528 211.116,517.309 213.012,520.97 C214.202,523.269 213.786,525.451 212.781,527.672 C211.685,530.096 210.67,532.559 209.701,535.036 C208.487,538.138 208.496,541.102 212.004,542.641 C215.285,544.08 217.33,542.184 218.825,539.411 C220.013,537.207 220.849,534.854 221.841,532.566 C223.256,529.304 224.924,526.394 228.608,525.038 C231.667,523.911 232.653,520.934 231.224,518.472 C228.217,513.292 229.531,508.1 230.322,502.943 C233.421,482.728 236.111,462.452 239.373,442.262 C239.586,440.946 239.777,439.63 239.576,438.293 C239.279,436.324 238.249,434.914 236.376,434.185 C234.44,433.431 232.827,434.066 231.333,435.352 C230.074,436.435 229.569,438.205 227.978,438.971" fill="#87C9D5"/>
    <path d="M111.504,74.649 C111.873,73.94 112.52,73.81 113.235,73.822 C115.002,73.941 116.619,73.367 118.224,72.742 C123.247,71.775 128.273,70.828 133.292,69.837 C138.475,68.814 140.279,66.433 139.366,61.108 C139.003,58.993 139.855,58.081 141.31,57.065 C171.733,35.822 204.438,19.839 241.781,15.733 C306.915,8.571 365.529,25.16 416.702,66.231 C450.298,93.194 470.341,128.432 476.916,171.057 C479.263,186.273 478.729,201.578 475.99,216.77 C475.43,219.878 474.328,221.896 470.751,222.891 C463.241,224.979 459.898,229.778 460.175,237.733 C460.313,241.678 459.157,243.005 455.259,242.882 C452.786,242.804 452.146,241.952 452.057,239.706 C451.272,219.787 446.897,200.535 440.904,181.621 C440.125,179.161 440.369,177.731 442.332,176.047 C444.967,173.788 445.04,170.647 443.333,167.877 C441.583,165.036 438.543,163.841 435.509,165.377 C424.934,170.729 415.314,167.532 406.189,162.077 C391.896,153.534 380.134,142.525 374.087,126.448 C372.547,122.353 369.478,120.812 365.325,122.022 C361.956,123.003 360.354,127.081 361.879,131.184 C364.67,138.693 367.309,146.2 367.299,154.349 C367.286,165.622 360.836,171.383 350.188,167.651 C325.728,159.079 306.722,144.195 298.789,118.181 C298.268,116.47 298.332,114.571 298.201,112.755 C297.912,108.764 295.577,106.474 291.815,106.439 C287.814,106.401 285.302,108.689 285.212,112.983 C285.042,121.129 285.544,129.281 284.301,137.412 C283.137,145.023 280.27,151.823 275.508,157.778 C270.077,164.572 263.275,165.747 255.526,161.344 C247.54,156.804 241.366,150.271 236.279,142.759 C222.078,121.792 212.968,99.085 213.364,73.298 C213.421,69.596 212.064,67.077 208.486,66.208 C205.123,65.391 202.593,66.965 201.172,69.984 C200.291,71.857 198.761,72.638 197.08,73.381 C142.884,97.332 111.897,140.176 97.343,196.252 C94.133,208.619 91.097,221.088 91.242,234.032 C91.253,235.038 91.218,236.048 90.237,236.688 C88.787,231.274 84.824,227.373 82.01,222.771 C71.63,205.789 68.18,187.781 75.211,168.541 C76.59,164.919 78.55,161.7 82.176,159.982 C85.525,158.395 86.885,155.852 86.149,152.348 C85.414,148.851 82.842,147.713 79.487,147.746 C78.734,147.754 77.976,147.21 77.22,146.92 C78.708,145.175 77.853,144.062 76.333,142.867 C59.729,129.809 62.363,115.604 73.103,101.639 C82.137,89.892 93.843,81.635 107.602,76.236 C108.776,75.396 110.368,75.585 111.504,74.649" fill="#C9A76F"/>
    <path d="M354.306,641.246 C354.306,649.238 354.114,657.236 354.391,665.219 C354.522,669.009 352.963,671.094 349.757,672.556 C344.376,675.009 338.612,675.926 332.851,676.591 C316.241,678.507 299.673,676.867 283.101,675.691 C280.335,675.495 279.891,674.07 279.916,671.767 C279.986,665.274 280.005,658.78 279.908,652.287 C279.847,648.281 278.56,645.01 273.872,644.567 C269.447,644.148 266.679,646.766 266.526,651.95 C266.334,658.438 266.416,664.937 266.495,671.429 C266.526,673.978 265.879,675.468 262.958,675.646 C243.848,676.807 224.762,677.589 205.823,673.736 C205.335,673.637 204.83,673.608 204.345,673.497 C188.961,669.98 187.862,668.796 188.268,653.166 C188.583,641.044 189.426,628.936 189.908,616.816 C190.009,614.266 190.696,613.773 193.194,614.482 C207.922,618.662 222.908,621.558 238.14,623.187 C258.556,625.371 278.96,625.364 299.378,623.172 C316.762,621.306 333.876,618.086 350.638,613.11 C353.922,612.135 354.254,613.622 354.226,616.274 C354.137,624.597 354.193,632.922 354.193,641.246 C354.231,641.246 354.269,641.246 354.306,641.246" fill="#9C9C9C"/>
    <path d="M585.088,246.702 C584.987,251.055 583.1,254.189 581.037,257.154 C569.867,273.201 554.354,284.367 538.356,294.991 C536.777,296.04 535.704,295.609 534.331,294.734 C520.734,286.065 506.694,278.015 493.624,268.617 C484.394,261.979 477.705,252.575 473.68,241.713 C471.683,236.326 473.051,234.7 478.774,234.786 C484.1,234.866 488.816,236.705 493.084,239.859 C498.566,243.91 503.611,242.186 504.857,235.486 C506.252,227.975 506.999,220.345 508.143,212.785 C508.899,207.795 510.638,203.17 513.64,199.03 C515.72,196.161 517.499,196.465 519.393,199.153 C521.503,202.145 522.293,205.569 522.106,209.081 C521.851,213.887 521.186,218.673 520.622,223.459 C520.112,227.788 522.172,231.267 525.92,231.663 C529.986,232.092 532.52,230.185 533.411,226.061 C535.266,217.485 538.714,209.616 544.477,202.926 C547.939,198.906 548.656,199.162 550.5,204.035 C553.724,212.56 551.846,220.821 548.949,228.859 C547.611,232.572 547.073,235.742 550.528,238.145 C554.175,240.681 557.444,239.277 560.267,236.3 C563.812,232.563 567.337,228.804 570.998,225.183 C572.253,223.942 574.126,222.235 575.714,223.469 C577.087,224.536 576.498,226.974 575.971,228.705 C574.73,232.78 571.981,235.951 569.224,239.077 C568.123,240.325 566.906,241.471 565.825,242.734 C562.983,246.055 562.816,250.12 565.604,252.541 C568.751,255.273 572.051,254.912 575.001,252.188 C577.754,249.644 580.862,247.876 585.088,246.702" fill="#FEF8EA"/>
    <path d="M427.24,313.733 C424.619,313.035 423.58,315.514 422.076,316.633 C404.647,329.601 382.293,324.921 371.8,305.911 C364.797,293.225 362.289,280.421 371.343,267.582 C375.087,262.274 379.359,257.416 385.204,254.245 C401.31,245.507 425.293,252.41 435.054,268.58 C435.728,269.698 436.505,270.754 437.234,271.839 C435.908,286.282 432.627,300.258 427.24,313.733" fill="#FFD9B4"/>
    <path d="M256.207,740.808 C256.207,756.783 256.103,772.759 256.291,788.732 C256.33,792.096 255.306,792.978 252.119,792.748 C243.337,792.114 234.541,791.604 225.742,791.279 C222.329,791.153 221.03,790.023 220.726,786.411 C218.355,758.254 215.742,730.118 213.199,701.975 C212.885,698.499 212.591,695.02 212.199,691.552 C211.928,689.146 212.212,688.078 215.282,688.429 C227.695,689.846 240.181,690.072 252.635,689.128 C256.112,688.865 256.267,690.179 256.252,692.883 C256.161,708.858 256.207,724.833 256.207,740.808" fill="#FEF8EA"/>
    <path d="M105.428,274.765 C107.841,273.039 108.538,270.132 110.124,267.837 C119.735,253.931 134.29,247.673 149.187,251.815 C162.241,255.444 168.515,265.585 173.724,277.32 C182.569,297.246 163.599,320.674 148.24,323.281 C138.939,324.86 130.12,323.325 121.57,319.535 C120.244,318.947 119.001,317.01 117.185,318.709 C110.982,304.672 107.54,289.896 105.428,274.765" fill="#FFD9B4"/>
    <path d="M290.726,740.823 C290.726,725.165 290.837,709.505 290.643,693.849 C290.598,690.267 291.605,689.376 295.116,689.636 C306.898,690.508 318.715,691.198 330.502,689.776 C333.922,689.363 334.644,690.441 334.336,693.712 C332.057,717.9 329.933,742.102 327.771,766.301 C327.149,773.262 326.512,780.222 325.982,787.191 C325.793,789.679 325.029,790.788 322.173,791.018 C313.22,791.739 304.294,792.708 295.305,793.068 C291.498,793.221 290.6,791.942 290.644,788.297 C290.835,772.474 290.726,756.648 290.726,740.823" fill="#FEF8EA"/>
    <path d="M65.208,605.575 C65.244,604.803 65.175,604.279 65.306,603.81 C66.24,600.456 66.676,597.099 63.418,594.767 C59.871,592.227 56.438,593.85 53.16,595.656 C46.464,599.345 39.71,602.902 32.116,604.404 C30.2,604.783 27.841,605.595 26.528,603.706 C25.061,601.595 27.28,600.002 28.447,598.625 C30.696,595.97 33.278,593.594 35.753,591.135 C38.102,588.801 39.09,586.207 37.453,583.053 C35.689,579.653 32.672,579.005 29.372,579.859 C25.684,580.813 22.114,582.219 18.482,583.396 C16.368,584.081 14.436,583.882 13.405,581.639 C12.212,579.046 14.251,578.045 16.004,577.101 C19.551,575.19 23.543,574.603 27.343,573.441 C31.337,572.22 33.727,569.77 32.848,565.347 C32.066,561.414 28.588,559.743 23.82,560.807 C21.878,561.24 19.978,561.857 18.045,562.333 C16.822,562.634 15.262,563.425 14.53,561.929 C13.897,560.634 15.417,559.907 16.297,559.292 C24.334,553.67 33.611,551.099 42.906,548.567 C44.49,548.136 45.413,549.059 46.389,549.949 C59.776,562.162 73.128,574.413 86.574,586.56 C88.272,588.095 88.342,589.261 87.381,591.238 C84.077,598.037 80.101,604.311 74.285,609.243 C72.318,610.91 70.165,613.772 67.598,612.549 C65.203,611.408 65.609,607.903 65.208,605.575" fill="#FEF8EA"/>
    <path d="M226.743,865.17 C218.536,865.187 211.906,863.098 205.414,860.436 C201.833,858.966 201.54,855.948 202.476,852.925 C205.964,841.672 213.289,832.844 221.039,824.318 C222.361,822.863 224.094,823.226 225.714,823.234 C235.587,823.283 244.611,826.449 253.361,830.717 C255.257,831.642 255.604,832.851 255.195,834.693 C253.442,842.572 250.676,849.985 245.406,856.259 C240.256,862.391 233.619,865.26 226.743,865.17" fill="#FEFEFE"/>
    <path d="M323.098,865.167 C308.866,865.272 301.164,858.546 296.057,848.059 C288.889,833.338 290.222,830.347 305.929,825.677 C322.246,820.825 324.871,821.708 334.953,835.43 C338.696,840.525 342.123,845.818 343.997,851.91 C345.593,857.1 344.545,859.08 339.533,861.141 C333.659,863.556 327.58,865.068 323.098,865.167" fill="#FEFEFE"/>
    <path d="M227.978,438.971 C229.439,433.683 232.342,431.23 236.067,432.136 C240.185,433.138 241.815,436.277 241.016,441.6 C237.516,464.909 234.038,488.222 230.499,511.525 C230.223,513.338 230.77,514.537 231.868,515.994 C235.245,520.476 233.63,525.416 228.274,526.687 C226.092,527.205 225.237,528.376 224.492,530.095 C222.903,533.756 221.365,537.442 219.672,541.055 C217.838,544.968 214.594,545.825 210.939,544.123 C207.397,542.474 206.456,539.392 207.868,535.737 C208.766,533.412 209.736,531.109 210.804,528.858 C212.226,525.864 213.356,523.364 211.003,519.831 C208.648,516.296 211.015,513.188 214.657,511.487 C216.282,510.728 217.842,510.48 218.181,508.017 C220.717,489.6 223.467,471.212 226.14,452.814 C226.186,452.492 226.109,452.152 226.089,451.821 C226.718,447.539 227.348,443.255 227.978,438.971" fill="#FEFEFE"/>
    <path d="M315.432,451.782 C318.058,469.996 320.692,488.21 323.299,506.428 C323.614,508.626 324.083,510.336 326.556,511.423 C331.523,513.607 332.606,516.837 329.817,521.327 C328.611,523.269 328.923,524.64 329.645,526.326 C330.822,529.076 332.06,531.801 333.186,534.572 C335.012,539.066 333.912,542.954 330.478,544.417 C326.723,546.016 323.237,544.184 321.118,539.464 C320.165,537.342 319.242,535.207 318.348,533.059 C317.04,529.917 316.268,526.929 311.732,526.151 C307.984,525.508 306.453,520.708 308.56,518.11 C312.307,513.492 310.705,509.007 310.051,504.464 C307.024,483.452 303.821,462.465 300.602,441.482 C299.823,436.404 301.915,432.537 306.073,431.976 C309.907,431.459 312.721,434.493 313.194,439.573 C313.251,440.185 313.625,440.768 313.851,441.358 C314.378,444.829 314.905,448.305 315.432,451.782" fill="#FEFEFE"/>
    <path d="M108.162,76.698 C94.794,83.048 82.647,91.008 73.54,102.973 C70.389,107.113 67.776,111.575 66.509,116.631 C64.219,125.767 67.169,133.246 74.095,139.422 C76.502,141.569 79.66,143.012 81.216,146.071 C79.851,147.388 78.405,146.385 77.219,146.92 C70.434,145.892 63.983,143.908 58.251,140.02 C48.333,133.294 45.966,124.333 51.496,113.75 C56.051,105.035 62.948,98.313 70.837,92.664 C81.834,84.79 93.895,79.05 107.032,75.668 C108.167,75.179 108.309,75.779 108.162,76.698" fill="#FEFEFE"/>
    <path d="M451.317,298.813 C446.622,299.631 445.835,297.892 446.967,293.381 C449.64,282.724 451.084,271.807 451.544,260.832 C451.695,257.206 453.38,256.088 456.27,255.868 C460.513,255.544 464.99,254.518 467.941,259.183 C471.182,264.306 473.476,269.384 469.792,275.321 C465.672,281.96 461.659,288.669 457.701,295.407 C456.226,297.919 454.531,299.689 451.317,298.813" fill="#FEF8EA"/>
    <path d="M75.211,168.541 C74.351,175.773 72.612,182.871 73.138,190.294 C74.169,204.838 78.137,218.141 88.588,228.775 C91.083,231.314 89.946,234.011 90.236,236.688 C84.258,238.079 80.448,234.534 77.134,230.536 C67.279,218.648 66.15,204.565 67.595,190.002 C68.187,184.048 69.681,178.238 72.145,172.742 C72.857,171.153 73.03,169.09 75.211,168.541" fill="#FEFDFD"/>
    <path d="M88.744,255.714 C90.493,255.46 90.656,256.671 90.717,257.882 C91.376,270.865 93.1,283.695 96.166,296.336 C96.692,298.503 95.863,298.983 93.84,298.47 C88.545,297.127 84.318,294.342 82.182,289.213 C78.446,280.242 78.44,271.058 81.583,261.932 C82.716,258.64 85.096,256.324 88.744,255.714" fill="#FEF7E9"/>
    <path d="M251.857,419.67 C265.095,420.404 277.149,420.473 290.147,419.62 C285.627,427.474 282.275,435.844 273.019,436.581 C262.089,437.45 257.898,428.043 251.857,419.67" fill="#FEF7E9"/>
    <path d="M256.212,817.498 C245.906,813.025 235.916,810.17 225.263,810.26 C222.03,810.288 222.967,807.352 222.805,805.738 C222.544,803.144 224.752,804.251 226.03,804.314 C234.665,804.739 243.293,805.456 251.931,805.581 C255.48,805.632 256.666,806.626 256.261,810.081 C255.999,812.312 256.212,814.598 256.212,817.498" fill="#86C8D3"/>
    <path d="M290.839,811.689 C289.69,806.869 291.546,805.667 295.666,805.834 C304.132,806.176 312.536,804.971 320.949,804.158 C322.309,804.027 324.224,803.196 324.035,805.814 C323.913,807.508 324.471,810.14 321.928,810.166 C311.811,810.273 302.414,813.053 292.916,816.282 C288.379,817.825 292.099,812.617 290.839,811.689" fill="#86C8D3"/>
    <path d="M440.947,315.403 C442.171,310.764 442.171,310.764 445.991,312.242 C444.715,313.799 443.484,315.303 442.252,316.806 C441.157,316.953 440.53,316.664 440.947,315.403" fill="#F6F3F1"/>
    <path d="M118.224,72.742 C116.69,73.696 115.329,75.454 113.235,73.822 C114.771,72.878 116.452,72.599 118.224,72.742" fill="#C9B59C"/>
    <path d="M440.947,315.403 C441.382,315.871 441.817,316.338 442.252,316.806 C441.624,317.654 440.995,318.502 440.09,319.722 C439.439,317.668 440.096,316.514 440.947,315.403" fill="#E1DAD1"/>
    <path d="M108.162,76.698 C107.785,76.354 107.409,76.011 107.032,75.668 C108.35,74.572 109.89,74.452 111.503,74.649 C110.809,76.016 109.508,76.394 108.162,76.698" fill="#ECE6DE"/>
    <path d="M274.555,362.184 C258.962,362.219 248.404,353.773 239.957,341.748 C232.186,330.687 227.641,318.247 224.452,305.256 C223.859,302.84 223.394,301.076 220.49,300.33 C217.81,299.642 216.589,297.165 217.48,294.36 C218.433,291.36 220.76,290.26 223.789,290.938 C254.948,297.924 286.203,297.139 317.518,292.173 C321.547,291.534 324.421,293.58 323.947,297.543 C321.587,317.255 317.38,336.349 302.494,351.02 C294.793,358.609 285.3,362.147 274.555,362.184" fill="#6E4100"/>
    <path d="M363.186,237.421 C363.125,240.615 362.584,243.707 361.245,246.631 C356.555,256.87 343.978,258.7 336.589,250.219 C328.223,240.616 331.074,224.013 342.172,217.707 C347.307,214.789 352.606,215.765 357,220.436 C360.68,224.348 363.174,231.194 363.186,237.421" fill="#6E4100"/>
    <path d="M214.399,237.384 C214.443,241.999 213.533,246.336 210.543,249.991 C206.473,254.965 200.015,256.841 194.427,254.774 C188.132,252.446 182.634,244.588 182.836,237.554 C183.045,230.258 185.868,223.964 191.475,219.166 C196.724,214.674 202.56,214.913 207.568,219.767 C212.519,224.566 214.299,230.668 214.399,237.384" fill="#6E4100"/>
    <path d="M195.671,122.263 C200.712,122.378 205.158,124.852 208.304,129.621 C209.779,131.857 209.702,134.125 207.568,135.839 C205.456,137.535 203.258,137.091 201.268,135.346 C195.011,129.858 189.845,130.423 185.091,137.347 C183.289,139.972 181.117,141.082 178.401,139.487 C175.58,137.831 175.788,135.183 177.175,132.516 C179.972,127.139 188.341,122.304 195.671,122.263" fill="#6E4300"/>
    <path d="M267.024,236.807 C267.038,233.55 268.824,231.919 271.942,231.823 C274.847,231.733 278.932,237.023 279.017,240.935 C279.085,244.109 277.331,245.949 274.254,246.214 C270.862,246.508 267.028,241.377 267.024,236.807" fill="#704501"/>
    <path d="M234.395,303.539 C245.689,304.718 256.245,305.834 266.873,305.947 C281.014,306.098 295.115,305.46 309.139,303.654 C312.766,303.187 313.215,304 312.447,307.502 C310.119,318.109 307.223,328.454 300.948,337.49 C292.268,349.989 279.037,354.896 265.838,350.749 C259.889,348.879 255.47,344.951 251.589,340.3 C242.773,329.732 237.893,317.316 234.395,303.539" fill="#FEFEFE"/>
  </g>
</svg>
